<?xml version="1.0" encoding="UTF-8" standalone="no"?>
<!-- Created with Inkscape (http://www.inkscape.org/) -->

<svg
   width="3291px"
   height="1314px"
   viewBox="0 0 3291 1314"
   version="1.1"
   id="SVGRoot"
   sodipodi:docname="CLARFEStudio_Logotipo.svg"
   inkscape:export-filename="..\Negativo\CLARFEStudio_Logotipo_Negativo.png"
   inkscape:export-xdpi="96"
   inkscape:export-ydpi="96"
   inkscape:version="1.2.2 (732a01da63, 2022-12-09)"
   xmlns:inkscape="http://www.inkscape.org/namespaces/inkscape"
   xmlns:sodipodi="http://sodipodi.sourceforge.net/DTD/sodipodi-0.dtd"
   xmlns="http://www.w3.org/2000/svg"
   xmlns:svg="http://www.w3.org/2000/svg">
  <sodipodi:namedview
     id="namedview2662"
     pagecolor="#ffffff"
     bordercolor="#000000"
     borderopacity="0.25"
     inkscape:showpageshadow="2"
     inkscape:pageopacity="0.0"
     inkscape:pagecheckerboard="0"
     inkscape:deskcolor="#d1d1d1"
     inkscape:document-units="px"
     showgrid="false"
     inkscape:zoom="0.16535615"
     inkscape:cx="547.30351"
     inkscape:cy="220.73567"
     inkscape:window-width="1366"
     inkscape:window-height="706"
     inkscape:window-x="-8"
     inkscape:window-y="-8"
     inkscape:window-maximized="1"
     inkscape:current-layer="g2544"
     showguides="true" />
  <defs
     id="defs2657" />
  <g
     inkscape:label="Camada 1"
     inkscape:groupmode="layer"
     id="layer1">
    <g
       id="g2816"
       style="font-weight:bold;font-size:4937.29px;line-height:1;font-family:'Helvetica Neue';-inkscape-font-specification:'Helvetica Neue Bold';stroke-width:51.4302;fill:#000000"
       transform="matrix(0.20448087,0,0,0.20448087,2126.3083,1485.0676)">
      <g
         id="g2544"
         transform="translate(0,-2347.4079)"
         style="fill:#000000">
        <g
           id="g3219">
          <path
             id="path2354"
             style="font-family:Helvetica;-inkscape-font-specification:'Helvetica Bold';fill:#000000;stroke-width:45.9644"
             d="M -730.60251 -3330.6486 C -1071.025 -3330.6486 -1285.7564 -3260.2658 -1374.812 -3119.5003 C -1459.5586 -3024.6991 -1501.9346 -2851.6215 -1501.9346 -2600.2548 L -1501.9346 -2449.4346 L -1838.0468 -2449.4346 L -1838.0468 -2016.3638 L -1495.4681 -2016.3638 L -1495.4681 -122.4863 L -883.57182 -122.4863 L -883.57182 -2016.3638 L -480.66509 -2016.3638 L -480.66509 -2449.4346 L -883.57182 -2449.4346 L -883.57182 -2647.6499 C -883.57182 -2693.614 -868.48977 -2735.2679 -838.32576 -2772.6139 C -806.72538 -2811.3962 -750.71186 -2829.3578 -670.27444 -2826.485 C -588.40067 -2825.0486 -530.22023 -2822.1691 -495.74711 -2817.8599 L -495.74711 -3317.7252 C -550.32957 -3322.0344 -593.42796 -3324.9045 -625.02838 -3326.3408 C -656.62877 -3329.2137 -691.82022 -3330.6486 -730.60251 -3330.6486 z M -6480.4241 -3298.3354 L -6480.4241 -122.4863 L -5866.3691 -122.4863 L -5866.3691 -3298.3354 L -6480.4241 -3298.3354 z M 570.51057 -2533.4602 C 241.57913 -2533.4602 -26.314805 -2425.0159 -233.15378 -2208.1223 C -438.55639 -1991.2286 -541.25106 -1679.5331 -541.25106 -1273.0371 C -541.25106 -839.24979 -427.05714 -526.10972 -198.67241 -333.63457 C 29.712306 -141.15941 293.28208 -44.927093 592.04948 -44.927093 C 954.01778 -44.927093 1235.5491 -159.12104 1436.6426 -387.50575 C 1565.9169 -531.14392 1638.4571 -672.62236 1654.2573 -811.9514 L 1027.2789 -811.9514 C 994.24213 -743.00507 956.1712 -689.13928 913.07967 -650.35697 C 834.07872 -578.53788 731.38399 -542.63372 604.98239 -542.63372 C 485.76273 -542.63372 383.78077 -572.07551 299.03422 -630.96717 C 159.70515 -725.76837 85.729999 -890.95815 77.111721 -1126.5247 L 1684.4213 -1126.5247 C 1687.2942 -1329.0546 1680.8318 -1484.18 1665.0315 -1591.9086 C 1637.7403 -1775.7655 1578.1248 -1937.3628 1486.1964 -2076.6919 C 1384.2132 -2234.6938 1254.9469 -2350.3227 1098.3812 -2423.5783 C 941.81566 -2496.8337 765.85854 -2533.4602 570.51057 -2533.4602 z M -7674.75 -2526.9938 C -8020.918 -2526.9938 -8292.3947 -2414.9572 -8489.179 -2190.8816 C -8685.9633 -1966.806 -8784.3529 -1652.9532 -8784.3529 -1249.3299 C -8784.3529 -891.67089 -8695.2957 -600.80707 -8517.1844 -376.73151 C -8339.0731 -152.65595 -8061.134 -40.619309 -7683.3655 -40.619309 C -7305.597 -40.619309 -7020.4734 -174.92264 -6827.9982 -443.52604 C -6707.3421 -610.14633 -6639.8388 -786.8162 -6625.4751 -973.54582 L -7252.4534 -973.54582 C -7265.3809 -850.01699 -7302.0073 -749.47006 -7362.3353 -671.90544 C -7422.6634 -594.34083 -7524.6453 -555.55707 -7668.2835 -555.55707 C -7870.8132 -555.55707 -8008.709 -653.23396 -8081.9645 -848.58189 C -8122.1832 -953.43773 -8142.2926 -1092.0461 -8142.2926 -1264.412 C -8142.2926 -1445.3961 -8122.1832 -1590.4764 -8081.9645 -1699.6414 C -8005.8362 -1905.044 -7864.3483 -2007.7482 -7657.5093 -2007.7482 C -7512.4347 -2007.7482 -7405.4254 -1960.3448 -7336.4791 -1865.5436 C -7289.0785 -1795.1609 -7259.6368 -1716.1584 -7248.1456 -1628.5391 L -6619.0086 -1628.5391 C -6653.4818 -1963.216 -6764.7962 -2196.6314 -6952.9622 -2328.7784 C -7139.6918 -2460.9256 -7380.2917 -2526.9938 -7674.75 -2526.9938 z M -4644.0378 -2526.9938 C -5039.0428 -2526.9938 -5317.7041 -2423.5768 -5480.0153 -2216.7378 C -5581.9984 -2084.5907 -5639.447 -1915.8182 -5652.3744 -1710.4156 L -5059.8679 -1710.4156 C -5045.5041 -1800.9077 -5016.7751 -1872.7256 -4973.6836 -1925.8717 C -4913.3556 -1997.6908 -4810.6608 -2033.5949 -4665.5863 -2033.5949 C -4536.312 -2033.5949 -4438.6351 -2014.9301 -4372.5615 -1977.5842 C -4305.0515 -1941.6746 -4271.2951 -1875.5969 -4271.2951 -1779.3593 C -4271.2951 -1700.3583 -4315.1063 -1642.1874 -4402.7255 -1604.8415 C -4451.5625 -1583.2957 -4532.7128 -1565.3341 -4646.1869 -1550.9703 L -4855.1861 -1525.1236 C -5092.1891 -1494.9596 -5271.7386 -1444.6862 -5393.831 -1374.3034 C -5616.4702 -1245.0292 -5727.7845 -1036.0283 -5727.7845 -747.31554 C -5727.7845 -524.67635 -5658.8367 -352.31156 -5520.944 -230.2191 C -5381.615 -109.56303 -5205.6579 -49.234876 -4993.0734 -49.234876 C -4826.4531 -49.234876 -4677.0773 -87.296346 -4544.9301 -163.42458 C -4434.3287 -228.06177 -4336.6518 -306.35155 -4251.9053 -398.27998 C -4247.5962 -345.13386 -4241.8465 -297.73043 -4234.6646 -256.07536 C -4227.4826 -214.42029 -4214.5579 -169.88691 -4195.885 -122.4863 L -3527.9684 -122.4863 L -3527.9684 -212.97842 C -3568.1871 -231.65137 -3598.3511 -255.35309 -3618.4605 -284.08073 C -3638.5698 -312.80837 -3650.7723 -367.39644 -3655.0815 -447.83382 C -3657.9543 -554.12608 -3659.3988 -644.61831 -3659.3988 -719.31017 L -3659.3988 -1796.6 C -3659.3988 -2079.5672 -3759.2235 -2272.0414 -3958.8805 -2374.0245 C -4158.5376 -2476.0076 -4386.9255 -2526.9938 -4644.0378 -2526.9938 z M -2107.4122 -2526.9938 C -2291.2691 -2526.9938 -2440.6544 -2478.8775 -2555.565 -2382.64 C -2625.9477 -2325.1847 -2708.5331 -2218.1755 -2803.3342 -2061.6099 L -2803.3342 -2470.9735 L -3389.3839 -2470.9735 L -3389.3839 -122.4863 L -2771.0211 -122.4863 L -2771.0211 -1245.0222 C -2771.0211 -1433.1882 -2747.3194 -1572.5189 -2699.9188 -1663.0109 C -2615.1722 -1823.8856 -2449.2699 -1904.3232 -2202.2121 -1904.3232 C -2183.5393 -1904.3232 -2159.1247 -1903.6104 -2128.9607 -1902.1741 C -2098.7967 -1900.7377 -2064.318 -1897.8581 -2025.5357 -1893.549 L -2025.5357 -2522.686 C -2052.8269 -2524.1223 -2070.7791 -2524.8447 -2079.3973 -2524.8447 C -2086.5792 -2526.2811 -2095.9211 -2526.9938 -2107.4122 -2526.9938 z M 570.51057 -2027.138 C 701.22135 -2027.138 810.37843 -1984.762 897.99765 -1900.0154 C 987.05344 -1816.7053 1036.6141 -1693.8917 1046.6687 -1531.5805 L 92.19374 -1531.5805 C 112.30309 -1683.837 161.1415 -1804.4933 238.70615 -1893.549 C 317.70712 -1982.6046 428.30878 -2027.138 570.51057 -2027.138 z M 3068.0891 -1632.0827 L 3068.0891 -1063.589 L 2575.0819 -1223.9895 L 2464.2161 -872.51826 L 2966.6604 -716.82674 L 2636.4129 -247.41203 L 2938.3493 -32.748768 L 3275.6746 -476.22126 L 3603.5629 -32.748768 L 3905.4993 -247.41203 L 3577.6111 -716.82674 L 4080.0553 -872.51826 L 3969.1896 -1223.9895 L 3476.1824 -1063.589 L 3476.1824 -1632.0827 L 3068.0891 -1632.0827 z M -4273.4442 -1264.412 L -4273.4442 -1036.0326 C -4277.7534 -830.62996 -4335.9338 -689.14198 -4447.9716 -611.57736 C -4558.5729 -534.01275 -4679.9419 -495.229 -4812.0891 -495.229 C -4895.3993 -495.229 -4966.5045 -518.21798 -5025.3961 -564.18219 C -5082.8514 -611.5828 -5111.5804 -687.70572 -5111.5804 -792.56159 C -5111.5804 -910.34488 -5064.177 -997.24478 -4969.3758 -1053.2637 C -4913.3569 -1086.3005 -4820.7074 -1114.3167 -4691.433 -1137.2989 L -4553.5457 -1163.1552 C -4484.5994 -1176.0826 -4430.7336 -1189.7201 -4391.9513 -1204.0839 C -4351.7326 -1219.8841 -4312.2265 -1239.9935 -4273.4442 -1264.412 z " />
        </g>
      </g>
    </g>
  </g>
</svg>
