<?xml version="1.0" encoding="UTF-8" standalone="no"?>
<!-- Created with Inkscape (http://www.inkscape.org/) -->

<svg
   version="1.1"
   id="svg2"
   width="512"
   height="512"
   viewBox="0 0 512 512"
   sodipodi:docname="instagram.svg"
   inkscape:version="1.2.2 (732a01da63, 2022-12-09)"
   xmlns:inkscape="http://www.inkscape.org/namespaces/inkscape"
   xmlns:sodipodi="http://sodipodi.sourceforge.net/DTD/sodipodi-0.dtd"
   xmlns="http://www.w3.org/2000/svg"
   xmlns:svg="http://www.w3.org/2000/svg">
  <defs
     id="defs6" />
  <sodipodi:namedview
     id="namedview4"
     pagecolor="#ffffff"
     bordercolor="#000000"
     borderopacity="0.25"
     inkscape:showpageshadow="2"
     inkscape:pageopacity="0.0"
     inkscape:pagecheckerboard="0"
     inkscape:deskcolor="#d1d1d1"
     showgrid="false"
     inkscape:zoom="1.4501213"
     inkscape:cx="470.99508"
     inkscape:cy="165.84819"
     inkscape:window-width="1366"
     inkscape:window-height="706"
     inkscape:window-x="-8"
     inkscape:window-y="-8"
     inkscape:window-maximized="1"
     inkscape:current-layer="g8" />
  <g
     inkscape:groupmode="layer"
     inkscape:label="Image"
     id="g8">
    <path
       style="fill:#000000;stroke-width:1.18942"
       d="M 150.48628,509.20269 C 103.24463,506.4844 71.833821,494.17376 45.570453,468.08376 24.901861,447.55158 12.865046,423.22359 7.1891623,390.5101 3.9757139,371.98908 3.0315867,341.70099 3.0315867,257.13241 c 0,-107.25766 1.1636825,-127.22234 8.9942873,-154.31053 12.60204,-43.593922 46.366793,-77.35415 90.014946,-90.002886 27.03311,-7.8338912 47.02283,-8.999792 154.30398,-8.999792 107.28116,0 127.27087,1.1659008 154.30399,8.999792 43.75165,12.678734 77.33069,46.257768 90.00943,90.009436 7.83389,27.03311 8.9998,47.02283 8.9998,154.30398 0,107.28116 -1.16591,127.27087 -8.9998,154.30399 -12.67874,43.75165 -46.25778,77.33069 -90.00943,90.00943 -15.34738,4.4475 -29.01778,6.52513 -51.53698,7.83262 -23.27957,1.35165 -184.83807,1.29298 -208.62553,-0.0758 z m 219.78451,-46.18902 c 16.87643,-1.88008 30.63853,-5.58445 43.07766,-11.59527 9.57623,-4.62742 12.86959,-7.04352 21.59454,-15.84231 8.54599,-8.6183 11.21697,-12.28135 15.72149,-21.56085 6.21657,-12.80635 9.5211,-25.54789 11.69082,-45.0772 2.11242,-19.01346 2.13857,-203.96805 0.0316,-223.61126 -2.05302,-19.1403 -5.41876,-32.08008 -11.72498,-45.07719 -4.50384,-9.282407 -7.1703,-12.939866 -15.71895,-21.560853 C 426.21801,69.889943 422.92465,67.473846 413.34842,62.846426 400.88963,56.826094 387.10324,53.119419 370.27076,51.264357 364.19819,50.595116 322.56582,49.748084 277.75436,49.382062 160.00158,48.420251 129.53601,50.225084 106.7076,59.515168 93.453985,64.908764 87.531594,68.879826 77.140771,79.34017 61.267512,95.319645 53.660304,114.02342 50.302673,145.32678 c -2.062837,19.23196 -2.062837,204.3793 0,223.61126 2.053264,19.14261 5.414724,32.06341 11.75867,45.19802 4.626041,9.57784 7.021096,12.8433 15.718956,21.43156 19.596779,19.34986 39.821581,26.31963 82.728541,28.5095 26.15347,1.33482 195.96172,0.47392 209.76195,-1.06345 z M 236.12464,386.0167 c -52.47182,-10.02532 -91.63008,-45.35023 -105.57878,-95.2433 -3.00821,-10.76003 -3.2533,-13.29442 -3.2533,-33.64099 0,-20.42679 0.23734,-22.857 3.31059,-33.89852 12.47954,-44.83628 47.01371,-79.29538 92.10065,-91.90042 10.76004,-3.00821 13.29443,-3.25331 33.641,-3.25331 20.34657,0 22.88096,0.2451 33.64099,3.25331 45.1587,12.62511 79.53182,46.98049 92.14071,92.09311 3.02825,10.83463 3.27054,13.33172 3.27054,33.70583 0,20.20081 -0.25936,22.93042 -3.16442,33.30381 -12.67254,45.2509 -46.90291,79.76142 -91.56184,92.31126 -9.65827,2.7141 -13.80956,3.17527 -31.35242,3.48283 -11.1211,0.19498 -21.55827,0.0988 -23.19372,-0.21361 z m 45.79273,-48.44335 c 13.41685,-4.32548 23.56921,-10.61095 33.89851,-20.98707 10.32718,-10.37401 16.60254,-20.46416 21.07172,-33.8813 2.80668,-8.42605 3.16954,-11.35363 3.16954,-25.57257 0,-14.21894 -0.36286,-17.14652 -3.16954,-25.57256 -4.54703,-13.65088 -10.79459,-23.61306 -21.66643,-34.54872 -7.83256,-7.87855 -11.51369,-10.54455 -20.81487,-15.07486 -13.27955,-6.46802 -24.73471,-9.25279 -38.0615,-9.25279 -46.55248,0 -84.44893,37.89645 -84.44893,84.44893 0,39.91799 27.2904,73.52784 67.20232,82.7639 11.07281,2.56238 31.02284,1.48008 42.81918,-2.32296 z M 385.39704,151.40374 c -14.69228,-3.82526 -23.59803,-15.07192 -23.64911,-29.86539 -0.0592,-17.13767 12.73161,-29.735539 30.19093,-29.735539 8.67232,0 13.60262,1.894178 20.01931,7.691276 6.74496,6.093663 9.71623,12.779563 9.71623,21.863273 0,12.06343 -5.23351,21.26089 -15.17746,26.67305 -6.17092,3.35864 -15.45524,4.84297 -21.0999,3.37333 z"
       id="path293" />
  </g>
</svg>
