<?xml version="1.0" encoding="UTF-8" standalone="no"?>
<!-- Created with Inkscape (http://www.inkscape.org/) -->

<svg
   version="1.1"
   id="svg2"
   width="512"
   height="512"
   viewBox="0 0 512 512"
   sodipodi:docname="linkedin.svg"
   inkscape:version="1.2.2 (732a01da63, 2022-12-09)"
   xml:space="preserve"
   xmlns:inkscape="http://www.inkscape.org/namespaces/inkscape"
   xmlns:sodipodi="http://sodipodi.sourceforge.net/DTD/sodipodi-0.dtd"
   xmlns="http://www.w3.org/2000/svg"
   xmlns:svg="http://www.w3.org/2000/svg"><defs
     id="defs6" /><sodipodi:namedview
     id="namedview4"
     pagecolor="#ffffff"
     bordercolor="#000000"
     borderopacity="0.25"
     inkscape:showpageshadow="2"
     inkscape:pageopacity="0.0"
     inkscape:pagecheckerboard="0"
     inkscape:deskcolor="#d1d1d1"
     showgrid="false"
     inkscape:zoom="1.4501213"
     inkscape:cx="228.60156"
     inkscape:cy="88.613275"
     inkscape:window-width="1366"
     inkscape:window-height="706"
     inkscape:window-x="-8"
     inkscape:window-y="-8"
     inkscape:window-maximized="1"
     inkscape:current-layer="g8" /><g
     inkscape:groupmode="layer"
     inkscape:label="Image"
     id="g8"><path
       style="fill:#ffffff;stroke-width:0.247333"
       d="M 18.617635,507.982 C 10.928908,506.35463 4.5728909,499.908 3.0456326,492.18773 2.6900352,490.38987 2.6604888,468.67093 2.723535,254.50166 2.7901185,28.626689 2.8109258,18.732323 3.2366439,17.310226 3.9203729,15.024457 5.7433035,11.54545 7.1862921,9.7730601 9.7002343,6.6852309 13.835692,4.0011575 17.751841,2.9158466 19.29533,2.4881102 28.803865,2.4702991 255.68538,2.4702991 c 227.58023,0 236.38527,0.016646 237.93333,0.4491055 6.94195,1.9393168 12.57512,7.5724444 14.51457,14.5145004 0.43238,1.548148 0.44903,10.353125 0.44903,237.933425 0,227.58026 -0.0208,236.38522 -0.44903,237.93341 -1.92259,6.88213 -7.39804,12.4035 -14.39097,14.51159 -1.42676,0.43011 -10.58116,0.44909 -237.43874,0.49172 -207.605604,0.0391 -236.16263,0 -237.685935,-0.32205 z M 152.7336,312.81018 152.79602,192.05031 H 115.20133 77.606636 v 120.8225 120.82249 l 37.532684,-0.0626 37.53269,-0.0626 z m 122.00132,59.97801 c 0,-35.4779 0.10611,-63.32587 0.24698,-66.7029 0.53246,-12.75981 2.24802,-22.1874 5.44528,-29.92307 5.67374,-13.72827 15.33521,-21.17581 30.41325,-23.44425 2.10279,-0.31635 4.42364,-0.42811 8.90387,-0.42874 5.268,0 6.44736,0.0726 9.02768,0.56118 7.64774,1.44809 12.95693,4.19085 17.76343,9.17678 5.79089,6.00706 9.4459,15.0297 11.03205,27.23335 1.11902,8.6088 1.09654,7.21442 1.24095,77.28252 l 0.13733,67.02698 h 37.47088 37.47068 l 0.0708,-63.68799 c 0.0687,-61.48378 -0.0916,-82.42971 -0.69621,-91.14187 -2.03871,-29.36472 -8.03705,-49.532 -19.11154,-64.25625 -2.5566,-3.39913 -6.91261,-8.00776 -10.09343,-10.67902 -12.09926,-10.16095 -28.67979,-15.97421 -49.79424,-17.45831 -5.49709,-0.3864 -18.49065,-0.17146 -22.40035,0.3707 -16.49938,2.2876 -30.80192,8.4535 -42.66481,18.39294 -6.08511,5.09855 -11.9896,12.05636 -15.33459,18.06997 -0.76925,1.38304 -1.09925,1.76344 -1.48398,1.71013 -0.48814,-0.0676 -0.49542,-0.28052 -0.55826,-16.45427 l -0.0645,-16.38576 H 235.7711 199.78607 v 120.65681 c 0,66.36125 0.0749,120.73102 0.16438,120.8217 0.0916,0.0907 16.95256,0.165 37.47088,0.165 h 37.30589 V 372.7883 Z M 121.44748,158.52892 c 5.25011,-0.78521 8.95028,-1.98173 13.8038,-4.46388 11.33354,-5.79603 19.91033,-16.99693 22.49585,-29.37888 1.66188,-7.95814 1.06491,-16.88658 -1.60279,-23.97437 -2.37932,-6.321273 -5.5154,-11.234571 -10.12485,-15.863142 -8.35935,-8.394095 -18.99023,-12.809411 -30.81879,-12.799902 -7.22909,0.0062 -13.38078,1.496963 -19.827721,4.806182 -26.283201,13.491226 -31.735971,48.672272 -10.768004,69.472362 3.672495,3.64291 7.495634,6.30926 12.296719,8.57595 3.970036,1.8743 7.528506,2.90818 12.857686,3.73556 2.32813,0.36145 8.95298,0.29917 11.6881,-0.10986 z"
       id="path359" /></g></svg>
